<?xml version="1.0" encoding="iso-8859-1"?>
<!-- Generator: Adobe Illustrator 19.0.0, SVG Export Plug-In . SVG Version: 6.00 Build 0)  -->
<svg version="1.1" id="Capa_1" xmlns="http://www.w3.org/2000/svg" xmlns:xlink="http://www.w3.org/1999/xlink" x="0px" y="0px"
	 viewBox="0 0 512 512" style="enable-background:new 0 0 512 512;" xml:space="preserve">
<path style="fill:#00E6EB;" d="M336.999,251.994L336.999,251.994c-8.964-8.964-14.001-21.123-14.001-33.8V216v-0.1
	c0-15.118,7.199-30.013,18.185-40.218c3.043-2.826,4.76-6.798,4.76-10.951v-30.896c0-23.684-18.592-43.618-42.266-44.304
	c-0.494-0.014-0.989-0.021-1.487-0.021c-5.472,0.006-9.95-4.572-9.95-10.044V55.5h-35.056h-37.425v23.967
	c0,5.474-4.479,10.05-9.952,10.044c-0.451-0.001-0.901,0.005-1.349,0.017c-23.77,0.625-42.514,20.525-42.514,44.303v30.828
	c0,4.085,1.629,8.032,4.616,10.82c21.024,19.622,25.274,55.684,4.441,76.517l0,0c-8.964,8.964-14.001,21.123-14.001,33.8V474.5
	c0,0.503,0.013,1.003,0.038,1.5l0,0c0.782,15.871,13.897,28.5,29.962,28.5h130c16.569,0,30-13.431,30-30V285.795
	C351,273.117,345.964,260.959,336.999,251.994z"/>
<path style="fill:#00D2D7;" d="M351,474.5V285.795c0-12.678-5.036-24.836-14.001-33.8l0,0c-8.964-8.964-14.001-21.123-14.001-33.8
	V216v-0.1c0-15.118,7.199-30.013,18.185-40.218c3.043-2.826,4.76-6.798,4.76-10.951v-30.896c0-23.684-18.592-43.618-42.266-44.304
	c-0.494-0.014-0.989-0.021-1.486-0.021c-5.472,0.005-9.95-4.571-9.95-10.044V55.5h-36.297v23.967c0,8.695,3.4,16.88,9.573,23.046
	c6.132,6.125,14.25,9.497,22.863,9.497c0.012,0,0.024,0,0.035,0c0.264-0.005,0.533,0.003,0.814,0.012
	c11.258,0.326,20.417,10.111,20.417,21.813v27.716c-14.42,14.607-22.945,34.68-22.945,54.348v2.294
	c0,18.778,7.313,36.432,20.59,49.709c4.779,4.78,7.411,11.134,7.411,17.892V447c0,19.33-15.67,35-35,35H161.951
	c3.331,12.938,15.071,22.5,29.049,22.5h130C337.568,504.5,351,491.069,351,474.5z"/>
<path style="fill:#556EA0;" d="M255.887,406c-9.374,0-17-7.626-17-17c0-6.582,9.21-22.217,13.17-28.634l3.83-6.205l3.83,6.205
	c3.96,6.417,13.17,22.052,13.17,28.634C272.887,398.374,265.261,406,255.887,406z"/>
<path style="fill:#4B5F91;" d="M283.911,27.345l-2.605-13.022c-0.794-3.967-4.277-6.823-8.323-6.823H244.43
	c-4.688,0-8.488,3.8-8.488,8.488v21.51h0.001V56h40V37.477C281.119,37.264,284.938,32.479,283.911,27.345z"/>
<path style="fill:#556EA0;" d="M255.942,27.498V17.5c0-5.523-4.477-10-10-10h-7.039c-4.046,0-7.529,2.856-8.323,6.823l-2.605,13.022
	c-1.051,5.252,2.967,10.153,8.323,10.153h9.644C251.465,37.498,255.942,33.02,255.942,27.498z"/>
<path style="fill:#4B5F91;" d="M298.943,46.002h-43V76h43c3.866,0,7-3.134,7-7V53.002C305.943,49.136,302.809,46.002,298.943,46.002
	z"/>
<path style="fill:#556EA0;" d="M275.943,66v-9.998c0-5.523-4.477-10-10-10h-53c-3.866,0-7,3.134-7,7V69c0,3.866,3.134,7,7,7h53
	C271.466,76,275.943,71.523,275.943,66z"/>
<path d="M358.5,278.559c0-1.451-0.419-2.8-1.132-3.948c-2.147-10.506-7.309-20.163-15.066-27.92
	c-7.612-7.612-11.805-17.733-11.805-28.497V215.9c0-12.559,5.902-25.539,15.79-34.722c3.014-2.8,5.17-6.381,6.285-10.29
	c0.036-0.111,0.067-0.224,0.098-0.337c0.023-0.085,0.044-0.171,0.066-0.256c0.023-0.096,0.049-0.19,0.068-0.287
	c0.416-1.716,0.638-3.485,0.638-5.276v-30.896c0-13.432-5.082-26.194-14.311-35.935c-9.042-9.543-21.084-15.115-34.015-15.8
	c4.911-2.325,8.325-7.315,8.325-13.1V53.002c0-7.995-6.505-14.5-14.5-14.5H288.42c2.685-3.626,3.734-8.176,2.843-12.629
	l-2.604-13.022C287.171,5.405,280.577,0,272.983,0h-34.08c-7.594,0-14.188,5.405-15.678,12.852l-2.604,13.021
	c-0.887,4.437,0.158,9.008,2.842,12.629h-10.52c-7.995,0-14.5,6.505-14.5,14.5V69c0,5.79,3.42,10.785,8.339,13.107
	c-26.786,1.501-48.339,24.385-48.339,51.723v30.828c0,6.209,2.551,12.151,6.999,16.302c9.595,8.956,15.463,22.35,15.695,35.83
	c0.202,11.703-3.861,22.322-11.44,29.901c-10.445,10.445-16.197,24.333-16.197,39.104V474.5c0,0.626,0.016,1.249,0.047,1.869
	C154.531,496.349,170.982,512,191,512h130c20.678,0,37.5-16.822,37.5-37.5V285.795c0-1.79-0.088-3.565-0.255-5.325
	C358.406,279.859,358.5,279.22,358.5,278.559z M236.251,29.983c-0.373-0.015-0.605-0.214-0.734-0.379
	c-0.182-0.232-0.245-0.497-0.187-0.789l2.604-13.021c0.092-0.46,0.5-0.795,0.969-0.795h34.08c0.47,0,0.877,0.334,0.969,0.794
	l2.604,13.021c0.062,0.304-0.008,0.58-0.204,0.82c-0.197,0.24-0.454,0.362-0.765,0.362c-4.143,0-7.5,3.358-7.5,7.5
	c0,0.342,0.031,0.675,0.075,1.005H243.37c0.032-0.236,0.056-0.474,0.066-0.716C243.606,33.647,240.39,30.154,236.251,29.983z
	 M213.443,53.502h85V68.5h-85V53.502z M321,497H191c-12.011,0-21.881-9.386-22.471-21.368c-0.019-0.375-0.029-0.752-0.029-1.132
	V286.059h20.139c4.142,0,7.5-3.358,7.5-7.5s-3.358-7.5-7.5-7.5H171.28c2-5.095,5.038-9.774,9.024-13.761
	c10.481-10.481,16.104-24.959,15.831-40.767c-0.253-14.66-5.698-29.258-14.834-40.479h17.339c4.142,0,7.5-3.358,7.5-7.5
	s-3.358-7.5-7.5-7.5h-25.196V133.83c0-19.784,15.795-36.295,35.209-36.805c0.366-0.01,0.732-0.015,1.1-0.015
	c0.022,0,0.044,0,0.066,0c4.611,0,8.967-1.814,12.266-5.109c2.357-2.354,3.947-5.254,4.689-8.401h58.453
	c0.742,3.147,2.332,6.047,4.689,8.4c3.299,3.296,7.653,5.11,12.264,5.11c0.007,0,0.013,0,0.02,0
	c0.426-0.005,0.839,0.005,1.262,0.018c19.29,0.558,34.983,17.069,34.983,36.807v27.217H228.61c-4.142,0-7.5,3.358-7.5,7.5
	s3.358,7.5,7.5,7.5h101.928c-9.51,11.352-15.04,25.75-15.04,39.848v2.294c0,14.771,5.752,28.658,16.197,39.104
	c3.987,3.987,7.025,8.666,9.025,13.761H218.609c-4.142,0-7.5,3.358-7.5,7.5s3.358,7.5,7.5,7.5H343.5V474.5
	C343.5,486.907,333.406,497,321,497z"/>
<path d="M262.269,350.222c-1.366-2.213-3.781-3.561-6.382-3.561c-2.601,0-5.016,1.348-6.382,3.561l-3.83,6.205
	c-14.288,23.151-14.288,30.243-14.288,32.573c0,13.509,10.991,24.5,24.5,24.5c13.51,0,24.5-10.991,24.5-24.5
	c0-2.329,0-9.416-14.288-32.573L262.269,350.222z M255.887,398.5c-5.238,0-9.5-4.262-9.5-9.496c0.033-1.916,2.64-8.816,9.5-20.467
	c6.86,11.653,9.467,18.553,9.5,20.463C265.387,394.238,261.125,398.5,255.887,398.5z"/>
<g>
</g>
<g>
</g>
<g>
</g>
<g>
</g>
<g>
</g>
<g>
</g>
<g>
</g>
<g>
</g>
<g>
</g>
<g>
</g>
<g>
</g>
<g>
</g>
<g>
</g>
<g>
</g>
<g>
</g>
</svg>
