<?xml version="1.0" encoding="iso-8859-1"?>
<!-- Generator: Adobe Illustrator 19.0.0, SVG Export Plug-In . SVG Version: 6.00 Build 0)  -->
<svg xmlns="http://www.w3.org/2000/svg" xmlns:xlink="http://www.w3.org/1999/xlink" version="1.1" id="Layer_1" x="0px" y="0px" viewBox="0 0 438 438" style="enable-background:new 0 0 438 438;" xml:space="preserve" width="512" height="512">
<g>
	<path style="fill:#E09B2D;" d="M347.503,173.684c5.66,5.67,5.66,14.85,0,20.51c-5.66,5.66-14.84,5.66-20.51,0l-30.16-30.17h41.01   L347.503,173.684z"/>
	<path style="fill:#E09B2D;" d="M233.903,173.684c5.66,5.67,5.66,14.85,0,20.51c-5.67,5.66-14.85,5.66-20.51,0l-30.17-30.17h41.02   L233.903,173.684z"/>
	<path style="fill:#E09B2D;" d="M120.293,173.684c5.67,5.67,5.67,14.85,0,20.51c-5.66,5.66-14.84,5.66-20.5,0l-30.17-30.17h41.01   L120.293,173.684z"/>
	<path style="fill:#F7B239;" d="M412.043,174.434c11.4,11.41,18.46,27.17,18.46,44.57c0,34.8-28.22,63.02-63.02,63.02H70.523   c-17.4,0-33.16-7.06-44.56-18.46c-11.4-11.4-18.46-27.16-18.46-44.56c0-31.97,23.8-58.37,54.63-62.47l7.49,7.49l30.17,30.17   c5.66,5.66,14.84,5.66,20.5,0c5.67-5.66,5.67-14.84,0-20.51l-9.66-9.66l-8.05-8.05h72.59l8.05,8.05l30.17,30.17   c5.66,5.66,14.84,5.66,20.51,0c5.66-5.66,5.66-14.84,0-20.51l-9.66-9.66l-8.05-8.05h72.59l8.05,8.05l30.16,30.17   c5.67,5.66,14.85,5.66,20.51,0c5.66-5.66,5.66-14.84,0-20.51l-9.66-9.66l-8.05-8.05h37.69   C384.883,155.974,400.643,163.024,412.043,174.434z"/>
	<g>
		<path style="fill:#E09B2D;" d="M56.503,219.003c0-18.698,8.15-35.481,21.077-47.022l-7.957-7.957l-7.49-7.49    c-30.83,4.101-54.63,30.5-54.63,62.47c0,17.4,7.06,33.16,18.46,44.561c11.4,11.399,27.16,18.46,44.56,18.46h49    c-17.4,0-33.16-7.061-44.56-18.46C63.563,252.164,56.503,236.404,56.503,219.003z"/>
	</g>
	<path style="fill:#FFFFFF;" d="M404.172,242.48c-1.003,0-2.022-0.202-3-0.63c-3.796-1.658-5.528-6.08-3.869-9.876   c1.791-4.098,2.699-8.462,2.699-12.971c0-8.685-3.387-16.857-9.536-23.013c-2.928-2.93-2.925-7.679,0.005-10.606   c2.929-2.928,7.678-2.925,10.606,0.005c8.979,8.987,13.925,20.926,13.925,33.614c0,6.589-1.331,12.974-3.955,18.979   C409.817,240.799,407.063,242.48,404.172,242.48z"/>
	<path style="fill:#FFFFFF;" d="M297.592,204.815c-1.92,0-3.839-0.732-5.304-2.197l-18.335-18.341   c-2.928-2.93-2.928-7.679,0.002-10.606c2.93-2.929,7.678-2.928,10.606,0.001l18.335,18.341c2.928,2.93,2.928,7.679-0.002,10.606   C301.43,204.083,299.511,204.815,297.592,204.815z"/>
	<path style="fill:#FFFFFF;" d="M188.791,209.619c-1.919,0-3.839-0.732-5.303-2.196l-23.144-23.145   c-2.929-2.93-2.929-7.678,0-10.607c2.929-2.928,7.678-2.928,10.606,0l23.144,23.145c2.929,2.93,2.929,7.678,0,10.607   C192.63,208.886,190.71,209.619,188.791,209.619z"/>
	<circle style="fill:#FFFFFF;" cx="375.003" cy="179.404" r="7.5"/>
	<path style="fill:#333333;" d="M417.346,169.134c-13.31-13.322-31.02-20.659-49.865-20.659h-37.69c-3.034,0-5.768,1.827-6.929,4.63   c-0.458,1.105-0.625,2.275-0.54,3.42h-22.385l-5.851-5.853c-1.407-1.407-3.315-2.197-5.304-2.197h-72.59   c-3.034,0-5.768,1.827-6.929,4.63c-0.458,1.105-0.625,2.275-0.54,3.42h-22.394l-5.854-5.854c-1.406-1.406-3.314-2.196-5.303-2.196   h-72.59c-3.033,0-5.768,1.827-6.929,4.63c-0.458,1.105-0.625,2.275-0.54,3.42H72.727l-5.293-5.293   c-1.651-1.65-3.979-2.436-6.292-2.131C26.285,153.736,0,183.789,0,219.005c0,18.835,7.336,36.543,20.657,49.862   c13.32,13.321,31.028,20.657,49.863,20.657h296.96c38.885,0,70.52-31.635,70.52-70.52C438,200.176,430.665,182.464,417.346,169.134   z M334.733,171.525l7.459,7.459c2.73,2.735,2.733,7.18,0.004,9.908c-2.727,2.727-7.173,2.727-9.902,0l-17.363-17.367H334.733z    M221.133,171.525l7.459,7.459c2.73,2.735,2.733,7.18,0.009,9.903c-2.734,2.73-7.18,2.732-9.908,0.004l-17.366-17.366H221.133z    M107.523,171.525l7.464,7.464c1.327,1.326,2.057,3.087,2.056,4.959c-0.001,1.865-0.729,3.619-2.057,4.944   c-1.32,1.32-3.077,2.048-4.946,2.048c-1.869,0-3.626-0.728-4.947-2.049l-17.366-17.366H107.523z M367.48,274.525H70.52   c-14.828,0-28.769-5.775-39.256-16.264C20.776,247.775,15,233.833,15,219.005c0-26.513,18.913-49.306,44.552-54.441l34.935,34.935   c4.154,4.153,9.678,6.441,15.553,6.441c5.876,0,11.4-2.288,15.548-6.437c4.16-4.151,6.452-9.674,6.455-15.549   c0.002-5.881-2.288-11.411-6.45-15.573l-4.907-4.906h51.377l36.023,36.023c8.57,8.57,22.527,8.572,31.117,0   c8.571-8.571,8.574-22.527,0-31.117l-4.907-4.906h51.376l36.019,36.027c8.584,8.57,22.542,8.567,31.111-0.004   c8.573-8.571,8.575-22.527,0-31.117l-4.907-4.906h19.584c14.837,0,28.777,5.775,39.254,16.261   C417.224,190.234,423,204.18,423,219.005C423,249.619,398.094,274.525,367.48,274.525z"/>
</g>















</svg>
